<svg width="17" height="14" viewBox="0 0 17 14" fill="none" xmlns="http://www.w3.org/2000/svg">
<path d="M15.6791 10.5254H6.55496" stroke="#515456" stroke-width="2" stroke-linecap="round"/>
<path d="M6.01334 10.6296C6.01334 9.19777 4.89924 8.03702 3.52493 8.03702C2.15063 8.03702 1.03653 9.19777 1.03653 10.6296C1.03653 12.0615 2.15063 13.2222 3.52494 13.2222C4.89924 13.2222 6.01334 12.0615 6.01334 10.6296Z" stroke="#515456" stroke-width="1.5"/>
<path d="M1.03704 3.47456L10.1612 3.47456" stroke="#515456" stroke-width="2" stroke-linecap="round"/>
<path d="M10.7028 3.37038C10.7028 4.80223 11.8169 5.96298 13.1912 5.96298C14.5655 5.96298 15.6796 4.80223 15.6796 3.37038C15.6796 1.93852 14.5655 0.777778 13.1912 0.777778C11.8169 0.777778 10.7028 1.93852 10.7028 3.37038Z" stroke="#515456" stroke-width="1.5"/>
</svg>
