<svg width="6" height="11" viewBox="0 0 6 11" fill="none" xmlns="http://www.w3.org/2000/svg">
<path d="M0.785356 10.9986C0.602178 10.9989 0.424658 10.9351 0.283611 10.8183C0.204227 10.7525 0.138607 10.6716 0.0905081 10.5804C0.0424096 10.4892 0.0127783 10.3894 0.00331106 10.2867C-0.00615613 10.184 0.00472705 10.0805 0.035337 9.98202C0.0659469 9.88355 0.115682 9.79208 0.181694 9.71286L3.69391 5.51075L0.307131 1.3008C0.242009 1.22061 0.193378 1.12834 0.164032 1.02929C0.134686 0.930246 0.125205 0.826376 0.136133 0.723653C0.147061 0.62093 0.178183 0.521379 0.227709 0.430723C0.277236 0.340066 0.344192 0.260092 0.424727 0.195396C0.505842 0.124026 0.600833 0.070192 0.703739 0.0372736C0.806646 0.00435519 0.915246 -0.00693696 1.02272 0.00410525C1.1302 0.0151475 1.23424 0.0482859 1.3283 0.101441C1.42236 0.154596 1.50442 0.22662 1.56933 0.312992L5.35593 5.01685C5.47124 5.15713 5.53428 5.33308 5.53428 5.51467C5.53428 5.69626 5.47124 5.87222 5.35593 6.0125L1.43606 10.7163C1.35741 10.8112 1.2575 10.8862 1.14445 10.9353C1.03139 10.9843 0.908366 11.006 0.785356 10.9986Z" fill="#545454"/>
</svg>
