<svg width="28" height="28" viewBox="0 0 28 28" fill="none" xmlns="http://www.w3.org/2000/svg">
<path d="M17.8537 23.3425C17.8537 25.4066 16.648 27.0794 14.5839 27.0794H6.87642C4.81234 27.0794 3.60659 25.4066 3.60659 23.3425" stroke="black" stroke-width="1.83" stroke-miterlimit="10" stroke-linecap="round"/>
<path d="M18.6711 18.6715C19.7029 18.6715 20.5396 19.7172 20.5396 21.0071C20.5396 22.2969 19.7029 23.3426 18.6711 23.3426H2.7891C1.75735 23.3426 0.920622 22.2969 0.920622 21.0071C0.920622 19.7172 1.75735 18.6715 2.7891 18.6715" stroke="black" stroke-width="1.83" stroke-miterlimit="10" stroke-linecap="round"/>
<path d="M19.1383 18.6713H9.52204C9.39831 18.6713 9.27967 18.7205 9.19213 18.8079L7.62553 20.3745C7.60384 20.3962 7.57808 20.4135 7.54973 20.4252C7.52138 20.437 7.49098 20.443 7.46029 20.443C7.4296 20.443 7.3992 20.437 7.37085 20.4252C7.3425 20.4135 7.31674 20.3962 7.29505 20.3745L5.72845 18.8079C5.64091 18.7205 5.52227 18.6713 5.39854 18.6713H2.32198C1.95032 18.6713 1.59388 18.5236 1.33107 18.2608C1.06826 17.998 0.920622 17.6416 0.920622 17.2699C0.920622 16.8983 1.06826 16.5418 1.33107 16.279C1.59388 16.0162 1.95032 15.8686 2.32198 15.8686H19.1383C19.5099 15.8686 19.8664 16.0162 20.1292 16.279C20.392 16.5418 20.5396 16.8983 20.5396 17.2699C20.5396 17.6416 20.392 17.998 20.1292 18.2608C19.8664 18.5236 19.5099 18.6713 19.1383 18.6713Z" stroke="black" stroke-width="1.83" stroke-miterlimit="10" stroke-linecap="round"/>
<path d="M2.78913 15.1679V15.1551C2.78913 11.9436 5.41668 10.2632 8.62812 10.2632H12.8322C16.0436 10.2632 18.6712 11.9565 18.6712 15.1679V15.1551" stroke="black" stroke-width="1.83" stroke-miterlimit="10" stroke-linecap="round"/>
<path d="M13.124 5.59189L13.5584 9.32709" stroke="black" stroke-width="1.83" stroke-miterlimit="10" stroke-linecap="round"/>
<path d="M13.9999 27.0794H22.1342C22.6056 27.0794 23.0596 26.9012 23.4051 26.5805C23.7507 26.2599 23.9622 25.8205 23.9975 25.3504L26.0866 5.59189" stroke="black" stroke-width="1.83" stroke-miterlimit="10" stroke-linecap="round"/>
<path d="M20.5396 5.59206L21.4738 1.85511L24.2182 0.920868" stroke="black" stroke-width="1.83" stroke-linecap="round" stroke-linejoin="round"/>
<path d="M12.1314 5.59189H27.0792" stroke="black" stroke-width="1.83" stroke-miterlimit="10" stroke-linecap="round"/>
</svg>
