<svg width="430" height="666" viewBox="0 0 430 666" fill="none" xmlns="http://www.w3.org/2000/svg">
<path fill-rule="evenodd" clip-rule="evenodd" d="M45.1453 0H154.076L154.103 0.119652C157.258 7.49821 164.645 12.6778 173.257 12.6778H256.41C265.022 12.6778 272.409 7.49821 275.568 0.119652L275.591 0H384.522C409.446 0 429.65 19.9855 429.65 44.6378V116.297V129.272C429.65 140.631 429.65 141.127 429.65 156.146C429.65 197.082 429.684 210.283 429.65 237.355C429.613 264.424 429.65 275.816 429.65 318.561C429.65 327.81 429.65 336.228 429.65 348.038L429.65 352.562V366.362C429.65 391.015 409.446 411 384.522 411H45.1453C20.2213 411 0.0167462 391.015 0.0167462 366.362V331.399L0.0169678 328.305C0.0169678 324.343 0.0169584 322.858 0.0169312 318.561C0.0169312 282.253 -0.0210404 286.954 0.0167462 259.886C0.0167462 230.259 0.0167462 227.783 0.0167462 161.105V143.644V44.6378C0.0167462 19.9853 20.2213 0 45.1453 0Z" fill="black"/>
<path d="M0 313C0 285.386 22.3858 263 50 263H380C407.614 263 430 285.386 430 313V616C430 643.614 407.614 666 380 666H50C22.3858 666 0 643.614 0 616V313Z" fill="black"/>
</svg>
