<svg width="8" height="14" viewBox="0 0 8 14" fill="none" xmlns="http://www.w3.org/2000/svg">
<path d="M1.9363 13.96C1.85085 13.9168 1.77983 13.8408 1.73446 13.7439C1.6891 13.647 1.67196 13.5348 1.68575 13.425L2.44576 7.50008H0.428817C0.364874 7.50214 0.301391 7.48659 0.243265 7.45461C0.185139 7.42264 0.133924 7.37511 0.0935724 7.31568C0.0532206 7.25625 0.0248103 7.18652 0.0105337 7.11186C-0.00374298 7.03721 -0.00350436 6.95962 0.011231 6.88509L1.26399 0.385174C1.28603 0.27331 1.33959 0.173955 1.41565 0.103834C1.49171 0.0337129 1.58562 -0.00289294 1.68158 0.000178704H5.85744C5.91982 -7.52791e-05 5.98146 0.0164103 6.03783 0.0484242C6.09419 0.0804381 6.14385 0.127167 6.18316 0.185176C6.22301 0.243841 6.25124 0.312568 6.2657 0.386182C6.28017 0.459796 6.2805 0.536381 6.26667 0.610171L5.54425 4.50012H7.52778C7.60605 4.49993 7.68278 4.52608 7.74923 4.57559C7.81568 4.6251 7.86918 4.69597 7.90361 4.78012C7.93354 4.86089 7.94505 4.94971 7.93698 5.03753C7.92891 5.12536 7.90155 5.20906 7.85768 5.28011L2.42906 13.78C2.39237 13.8451 2.34338 13.899 2.28606 13.9372C2.22875 13.9754 2.16472 13.9969 2.09916 14C2.04329 13.9988 1.98808 13.9852 1.9363 13.96Z" fill="#FDA800"/>
</svg>
