<svg width="26" height="26" viewBox="0 0 26 26" fill="none" xmlns="http://www.w3.org/2000/svg">
<path d="M3.24998 10.5486C3.2473 10.7133 3.29473 10.8749 3.386 11.0121C3.47728 11.1492 3.60807 11.2553 3.76104 11.3164L11.5618 14.4372L14.6826 22.2388C14.7429 22.3897 14.8471 22.5191 14.9816 22.6102C15.1162 22.7013 15.2749 22.7499 15.4374 22.7499H15.4504C15.615 22.7473 15.7749 22.6948 15.909 22.5993C16.043 22.5039 16.1449 22.3699 16.2012 22.2153L22.7012 4.34033C22.7544 4.19491 22.7649 4.03732 22.7316 3.88611C22.6982 3.7349 22.6223 3.59637 22.5129 3.48683C22.4034 3.3773 22.265 3.30132 22.1138 3.26785C21.9626 3.23437 21.805 3.2448 21.6595 3.29789L3.78461 9.79787C3.62988 9.85428 3.49592 9.95634 3.40046 10.0905C3.305 10.2247 3.25252 10.3848 3.24998 10.5494V10.5486Z" fill="#012E71"/>
</svg>
