<svg width="39" height="35" viewBox="0 0 39 35" fill="none" xmlns="http://www.w3.org/2000/svg">
<path fill-rule="evenodd" clip-rule="evenodd" d="M24.4244 0.410484C25.3309 -0.269425 26.617 -0.085706 27.2969 0.820847L32.8368 8.20738H32.8434C36.6159 8.20738 39.5009 11.5701 38.9272 15.2989L36.7176 29.6616C36.2556 32.6644 33.6719 34.881 30.6336 34.881H8.36641C5.32827 34.881 2.74452 32.6644 2.28256 29.6616L0.0728981 15.2989C-0.500748 11.5701 2.38418 8.20738 6.15677 8.20738H6.16326L11.7032 0.820847C12.3831 -0.085706 13.6692 -0.269425 14.5757 0.410484C15.4822 1.09039 15.666 2.37647 14.9861 3.28302L11.2928 8.20738H27.7073L24.014 3.28302C23.3341 2.37647 23.5179 1.09039 24.4244 0.410484ZM7.16526 12.311C7.18015 12.3112 7.19505 12.3112 7.20993 12.311H31.7902H31.8349H32.8434C34.101 12.311 35.0624 13.4319 34.8712 14.6749L32.6616 29.0376C32.5077 30.0385 31.6464 30.7773 30.6336 30.7773H8.36641C7.3537 30.7773 6.49245 30.0385 6.33846 29.0376L4.12882 14.6749C3.93759 13.4319 4.89924 12.311 6.15677 12.311H7.16526Z" fill="black"/>
</svg>
