<svg width="25" height="26" viewBox="0 0 25 26" fill="none" xmlns="http://www.w3.org/2000/svg">
<path d="M23.7778 5.35889L19.8472 1.27111C19.0666 0.458221 18.0075 0.00101141 16.9028 0H8.09722C6.99253 0.00101141 5.93343 0.458221 5.15278 1.27111L1.22222 5.35889C0.440597 6.17077 0.000972511 7.27223 0 8.42111V21.6667C0 22.8159 0.438987 23.9181 1.22039 24.7308C2.00179 25.5435 3.0616 26 4.16667 26H20.8333C21.9384 26 22.9982 25.5435 23.7796 24.7308C24.561 23.9181 25 22.8159 25 21.6667V8.42111C24.999 7.27223 24.5594 6.17077 23.7778 5.35889ZM12.5 18.7778C11.0266 18.7778 9.6135 18.1691 8.57163 17.0855C7.52976 16.002 6.94444 14.5324 6.94444 13C6.94444 12.6169 7.09077 12.2495 7.35124 11.9786C7.61171 11.7077 7.96498 11.5556 8.33333 11.5556C8.70169 11.5556 9.05496 11.7077 9.31543 11.9786C9.57589 12.2495 9.72222 12.6169 9.72222 13C9.72222 13.7662 10.0149 14.501 10.5358 15.0428C11.0567 15.5845 11.7633 15.8889 12.5 15.8889C13.2367 15.8889 13.9432 15.5845 14.4642 15.0428C14.9851 14.501 15.2778 13.7662 15.2778 13C15.2778 12.6169 15.4241 12.2495 15.6846 11.9786C15.945 11.7077 16.2983 11.5556 16.6667 11.5556C17.035 11.5556 17.3883 11.7077 17.6488 11.9786C17.9092 12.2495 18.0556 12.6169 18.0556 13C18.0556 14.5324 17.4702 16.002 16.4284 17.0855C15.3865 18.1691 13.9734 18.7778 12.5 18.7778ZM4.73611 5.77778L7.11111 3.30778C7.37727 3.04383 7.72949 2.89421 8.09722 2.88889H16.9028C17.2705 2.89421 17.6227 3.04383 17.8889 3.30778L20.2639 5.77778H4.73611Z" fill="black"/>
</svg>
