<svg width="24" height="26" viewBox="0 0 24 26" fill="none" xmlns="http://www.w3.org/2000/svg">
<path d="M17.5351 7.8605H6.04665C5.55084 7.8605 5.13967 7.44934 5.13967 6.95352V4.5349C5.13967 1.43908 6.57875 0 9.67458 0H13.9072C17.003 0 18.4421 1.43908 18.4421 4.5349V6.95352C18.4421 7.44934 18.0309 7.8605 17.5351 7.8605ZM6.95363 6.04654H16.6281V4.5349C16.6281 2.47908 15.963 1.81396 13.9072 1.81396H9.67458C7.61875 1.81396 6.95363 2.47908 6.95363 4.5349V6.04654Z" fill="black"/>
<path d="M12.9999 26H10.5813C7.65479 26 6.04642 24.3916 6.04642 21.4651V16.6279C6.04642 16.1321 6.45758 15.7209 6.9534 15.7209H16.6279C17.1237 15.7209 17.5348 16.1321 17.5348 16.6279V21.4651C17.5348 24.3916 15.9265 26 12.9999 26ZM7.86038 17.5349V21.4651C7.86038 23.3758 8.67061 24.1861 10.5813 24.1861H12.9999C14.9106 24.1861 15.7209 23.3758 15.7209 21.4651V17.5349H7.86038Z" fill="black"/>
<path d="M19.0466 21.1629H16.628C16.1322 21.1629 15.721 20.7517 15.721 20.2559V17.535H7.8605V20.2559C7.8605 20.7517 7.44934 21.1629 6.95352 21.1629H4.5349C1.60838 21.1629 0 19.5545 0 16.628V10.5814C0 7.65492 1.60838 6.04654 4.5349 6.04654H19.0466C21.9731 6.04654 23.5815 7.65492 23.5815 10.5814V16.628C23.5815 19.5545 21.9731 21.1629 19.0466 21.1629ZM17.535 19.3489H19.0466C20.9573 19.3489 21.7675 18.5387 21.7675 16.628V10.5814C21.7675 8.67074 20.9573 7.8605 19.0466 7.8605H4.5349C2.6242 7.8605 1.81396 8.67074 1.81396 10.5814V16.628C1.81396 18.5387 2.6242 19.3489 4.5349 19.3489H6.04654V16.628C6.04654 16.1322 6.4577 15.721 6.95352 15.721H16.628C17.1238 15.721 17.535 16.1322 17.535 16.628V19.3489Z" fill="black"/>
<path d="M17.8372 17.5349H5.74416C5.24835 17.5349 4.83718 17.1237 4.83718 16.6279C4.83718 16.1321 5.24835 15.7209 5.74416 15.7209H17.8372C18.3331 15.7209 18.7442 16.1321 18.7442 16.6279C18.7442 17.1237 18.3331 17.5349 17.8372 17.5349Z" fill="black"/>
<path d="M9.37209 12.6978H5.74416C5.24835 12.6978 4.83718 12.2866 4.83718 11.7908C4.83718 11.295 5.24835 10.8838 5.74416 10.8838H9.37209C9.8679 10.8838 10.2791 11.295 10.2791 11.7908C10.2791 12.2866 9.8679 12.6978 9.37209 12.6978Z" fill="black"/>
</svg>
