<svg width="18" height="17" viewBox="0 0 18 17" fill="none" xmlns="http://www.w3.org/2000/svg">
<path d="M17.5783 15.9655C16.2851 13.7298 14.2922 12.1267 11.9665 11.3668C13.1169 10.6819 14.0107 9.6384 14.5106 8.39642C15.0105 7.15444 15.0889 5.7827 14.7338 4.49185C14.3787 3.201 13.6096 2.06241 12.5447 1.25094C11.4799 0.439478 10.1781 0 8.83925 0C7.50043 0 6.19863 0.439478 5.13376 1.25094C4.06889 2.06241 3.29983 3.201 2.94469 4.49185C2.58954 5.7827 2.66795 7.15444 3.16787 8.39642C3.66779 9.6384 4.56158 10.6819 5.71198 11.3668C3.38627 12.1259 1.39342 13.729 0.100226 15.9655C0.052802 16.0429 0.0213463 16.1289 0.0077143 16.2186C-0.00591765 16.3083 -0.00144966 16.3998 0.0208546 16.4877C0.043159 16.5756 0.0828478 16.6582 0.137579 16.7305C0.192311 16.8029 0.260977 16.8635 0.339525 16.9089C0.418074 16.9543 0.504914 16.9834 0.594923 16.9947C0.684931 17.006 0.776284 16.9991 0.863592 16.9745C0.9509 16.9499 1.03239 16.908 1.10327 16.8514C1.17414 16.7948 1.23295 16.7245 1.27624 16.6448C2.87596 13.8801 5.70349 12.2295 8.83925 12.2295C11.975 12.2295 14.8025 13.8801 16.4023 16.6448C16.4455 16.7245 16.5044 16.7948 16.5752 16.8514C16.6461 16.908 16.7276 16.9499 16.8149 16.9745C16.9022 16.9991 16.9936 17.006 17.0836 16.9947C17.1736 16.9834 17.2604 16.9543 17.339 16.9089C17.4175 16.8635 17.4862 16.8029 17.5409 16.7305C17.5956 16.6582 17.6353 16.5756 17.6576 16.4877C17.6799 16.3998 17.6844 16.3083 17.6708 16.2186C17.6571 16.1289 17.6257 16.0429 17.5783 15.9655ZM4.08424 6.11589C4.08424 5.17544 4.36312 4.25611 4.8856 3.47415C5.40809 2.69219 6.15072 2.08273 7.01958 1.72284C7.88845 1.36294 8.84452 1.26878 9.7669 1.45225C10.6893 1.63572 11.5365 2.08859 12.2015 2.75359C12.8665 3.41859 13.3194 4.26585 13.5029 5.18823C13.6864 6.11061 13.5922 7.06669 13.2323 7.93555C12.8724 8.80442 12.2629 9.54705 11.481 10.0695C10.699 10.592 9.7797 10.8709 8.83925 10.8709C7.57855 10.8695 6.36988 10.3681 5.47844 9.4767C4.587 8.58525 4.08559 7.37658 4.08424 6.11589Z" fill="#A4A4A4"/>
</svg>
