<svg width="26" height="26" viewBox="0 0 26 26" fill="none" xmlns="http://www.w3.org/2000/svg">
<path d="M20.5834 11.917H7.73515L11.6676 7.19365C11.8515 6.97241 11.94 6.68719 11.9136 6.40073C11.8872 6.11427 11.748 5.85004 11.5268 5.66615C11.3056 5.48227 11.0204 5.3938 10.7339 5.42022C10.4474 5.44663 10.1832 5.58575 9.99931 5.80699L4.58266 12.307C4.54622 12.3587 4.51363 12.413 4.48517 12.4695C4.48517 12.5236 4.48517 12.5561 4.40933 12.6103C4.36023 12.7345 4.33452 12.8667 4.3335 13.0003C4.33452 13.1339 4.36023 13.2661 4.40933 13.3903C4.40933 13.4445 4.40933 13.477 4.48517 13.5311C4.51363 13.5876 4.54622 13.6419 4.58266 13.6936L9.99931 20.1936C10.1012 20.3159 10.2287 20.4142 10.3729 20.4816C10.5171 20.549 10.6743 20.5839 10.8335 20.5836C11.0866 20.5841 11.3319 20.4959 11.5268 20.3344C11.6365 20.2435 11.7272 20.1318 11.7936 20.0058C11.8601 19.8797 11.9011 19.7418 11.9141 19.5999C11.9272 19.458 11.9122 19.3149 11.8699 19.1789C11.8276 19.0428 11.7589 18.9164 11.6676 18.8069L7.73515 14.0836H20.5834C20.8708 14.0836 21.1463 13.9695 21.3495 13.7663C21.5526 13.5632 21.6668 13.2876 21.6668 13.0003C21.6668 12.713 21.5526 12.4374 21.3495 12.2343C21.1463 12.0311 20.8708 11.917 20.5834 11.917Z" fill="#1D1E22"/>
</svg>
