<svg width="430" height="415" viewBox="0 0 430 415" fill="none" xmlns="http://www.w3.org/2000/svg">
<rect y="69" width="430" height="316" fill="#E9E9EC"/>
<path fill-rule="evenodd" clip-rule="evenodd" d="M45.1286 0H154.06L154.086 0.120817C157.241 7.57118 164.629 12.8012 173.24 12.8012H256.393C265.005 12.8012 272.392 7.57118 275.551 0.120817L275.574 0H384.505C409.429 0 429.634 20.1798 429.634 45.0722V119.931L427.132 130.531C424.434 141.206 421.476 150.631 418.275 157.666C401.211 195.182 343.231 212.33 343.197 239.665C343.159 266.997 401.033 284.145 418.063 321.661C422.318 331.041 425.832 341.372 428.787 352.425L429.634 355.994V369.928C429.634 394.82 409.429 415 384.505 415H45.1286C20.2045 415 0 394.82 0 369.928V334.624L1.67397 329.451C2.68665 326.615 3.72578 324.006 4.79136 321.661C21.8558 284.145 79.8355 266.997 79.8733 239.665C79.9073 212.33 22.0334 195.182 5.00673 157.666L0 145.042V45.0722C0 20.1798 20.2045 0 45.1286 0Z" fill="#E2E0E6"/>
</svg>
