<svg width="360" height="191" viewBox="0 0 360 191" fill="none" xmlns="http://www.w3.org/2000/svg">
<rect y="49" width="360" height="100" fill="#8AD4FE"/>
<path fill-rule="evenodd" clip-rule="evenodd" d="M39.5832 0H125.676L125.799 0.662136C127.642 5.35036 131.952 8.63999 136.976 8.63999H223.024C228.048 8.63999 232.358 5.35036 234.201 0.662136L234.324 0H320.417C342.277 0 360 19.0865 360 42.6314V65.3686C360 88.912 342.277 108 320.417 108H39.5832C17.7231 108 0 88.912 0 65.3686V42.6314C0 19.0865 17.7231 0 39.5832 0Z" fill="#8AD4FE"/>
<path fill-rule="evenodd" clip-rule="evenodd" d="M320.417 191L234.324 191L234.201 190.338C232.358 185.65 228.048 182.36 223.024 182.36L136.976 182.36C131.952 182.36 127.642 185.65 125.799 190.338L125.676 191L39.5832 191C17.7231 191 -1.6686e-06 171.914 -3.72696e-06 148.369L-5.7147e-06 125.631C-7.77293e-06 102.088 17.7231 83 39.5832 83L320.417 83C342.277 83 360 102.088 360 125.631L360 148.369C360 171.913 342.277 191 320.417 191Z" fill="#8AD4FE"/>
</svg>
