<svg width="74" height="58" viewBox="0 0 74 58" fill="none" xmlns="http://www.w3.org/2000/svg">
<mask id="mask0_252_1905" style="mask-type:alpha" maskUnits="userSpaceOnUse" x="0" y="-10" width="74" height="68">
<rect y="-10" width="74" height="68" rx="7" fill="#E4B2BA"/>
</mask>
<g mask="url(#mask0_252_1905)">
<rect width="74" height="58" fill="#E4B2BA"/>
</g>
<path d="M28.4413 19.5163L43.0607 4.89695C44.1512 3.8064 45.3892 3.60008 46.7155 4.89695L60.3033 18.4847C61.2759 19.4574 61.1875 20.9311 60.3033 21.8153L30.7403 51.3488C29.6793 52.4099 28.2939 52.5867 27.056 51.3488L13.763 38.0558C12.7019 36.9947 12.7904 35.3146 13.763 34.342L28.4413 19.5163Z" fill="white"/>
<path d="M28.677 21.0195L43.9743 36.3168L30.0623 50.2288C29.2075 51.0835 28.3233 51.113 27.4391 50.2288L14.7061 37.4958C13.9103 36.7 13.9692 35.8157 14.7061 35.0789L28.677 21.0195Z" fill="#006491"/>
<path d="M44.9472 35.4029L29.6499 20.1056L43.5619 6.19367C44.4166 5.33891 45.3009 5.30944 46.1851 6.19367L58.9181 18.9267C59.7139 19.7225 59.655 20.6067 58.9181 21.3436L44.9472 35.4029Z" fill="#E31837"/>
<path d="M44.8584 23.908C46.9421 23.908 48.6312 22.2189 48.6312 20.1353C48.6312 18.0517 46.9421 16.3625 44.8584 16.3625C42.7748 16.3625 41.0857 18.0517 41.0857 20.1353C41.0857 22.2189 42.7748 23.908 44.8584 23.908Z" fill="white"/>
<path d="M34.2774 40.0897C36.361 40.0897 38.0501 38.4006 38.0501 36.3169C38.0501 34.2333 36.361 32.5442 34.2774 32.5442C32.1938 32.5442 30.5046 34.2333 30.5046 36.3169C30.5046 38.4006 32.1938 40.0897 34.2774 40.0897Z" fill="white"/>
<path d="M23.2539 40.0897C25.3376 40.0897 27.0267 38.4006 27.0267 36.3169C27.0267 34.2333 25.3376 32.5442 23.2539 32.5442C21.1703 32.5442 19.4812 34.2333 19.4812 36.3169C19.4812 38.4006 21.1703 40.0897 23.2539 40.0897Z" fill="white"/>
</svg>
