<svg width="21" height="21" viewBox="0 0 21 21" fill="none" xmlns="http://www.w3.org/2000/svg">
<path d="M10.5 21C16.2338 21 21 16.2441 21 10.5C21 4.76618 16.2235 0 10.4897 0C4.74554 0 0 4.76618 0 10.5C0 16.2441 4.75586 21 10.5 21ZM6.3926 16.2338C6.14554 16.0485 6.10438 15.75 6.24849 15.3279L7.50438 11.5706L4.29262 9.27499C3.92206 9.01765 3.78823 8.72944 3.87058 8.44118C3.96321 8.16325 4.25142 8.01914 4.69411 8.01914L8.64704 8.05002L9.85145 4.27207C9.97496 3.85003 10.1911 3.62352 10.5 3.62352C10.8088 3.62352 11.0147 3.85003 11.1485 4.27207L12.3529 8.05002L16.2955 8.01914C16.7485 8.01914 17.0161 8.16325 17.1191 8.44118C17.222 8.72944 17.0676 9.01765 16.7073 9.27499L13.4853 11.5706L14.7411 15.3279C14.8853 15.75 14.8441 16.0485 14.6073 16.2338C14.3499 16.4294 14.0514 16.3573 13.6911 16.0897L10.5 13.753L7.3088 16.0897C6.93819 16.3573 6.6397 16.4294 6.3926 16.2338Z" fill="#418A46"/>
</svg>
