<svg width="74" height="58" viewBox="0 0 74 58" fill="none" xmlns="http://www.w3.org/2000/svg">
<mask id="mask0_552_2243" style="mask-type:alpha" maskUnits="userSpaceOnUse" x="0" y="-10" width="74" height="68">
<rect y="-10" width="74" height="68" rx="7" fill="#EDB5B3"/>
</mask>
<g mask="url(#mask0_552_2243)">
<rect width="74" height="58" fill="#DADADA"/>
</g>
<path fill-rule="evenodd" clip-rule="evenodd" d="M36.533 9C46.7685 9 55.0661 17.2827 55.0661 27.5C55.0661 37.7173 46.7685 46 36.533 46C36.19 46 35.8493 45.99 35.5108 45.9716L39.4089 35.0432H43.4616C44.6386 35.0432 45.8769 34.0819 46.2136 32.9071L49.6357 23.3131C50.3304 21.3653 49.0306 20.2163 47.5391 20.2121L40.8619 20.21L31.8734 45.41C23.8934 43.3471 18 36.1107 18 27.5C18 18.7089 24.1428 11.3501 32.3775 9.46722L23.4676 34.4467H27.3054L31.621 22.3477H33.826L29.5195 34.4212H33.3573L37.3194 23.3131C38.0142 21.3653 36.7144 20.2163 35.2228 20.2121L32.3856 20.204L36.3813 9.00191C36.4319 9.00151 36.4823 9 36.533 9Z" fill="#015294"/>
<path fill-rule="evenodd" clip-rule="evenodd" d="M40.1709 32.907L43.9373 22.3477H46.1424L42.3759 32.907H40.1709Z" fill="#015294"/>
</svg>
