<svg width="24" height="26" viewBox="0 0 24 26" fill="none" xmlns="http://www.w3.org/2000/svg">
<path d="M5.19998 3.90002C5.19998 1.74201 6.94198 0 9.09999 0H14.3C16.458 0 18.2 1.74201 18.2 3.90002C18.2 4.61502 17.615 5.20002 16.9 5.20002H6.49998C5.78498 5.20002 5.19998 4.61502 5.19998 3.90002Z" fill="black"/>
<path d="M19.1752 16.9C19.1752 17.433 18.7332 17.875 18.2002 17.875H16.9002V22.1C16.9002 24.258 15.1582 26 13.0002 26H10.4001C8.24214 26 6.50013 24.258 6.50013 22.1V17.875H5.20012C4.66712 17.875 4.22512 17.433 4.22512 16.9C4.22512 16.367 4.66712 15.925 5.20012 15.925H18.2002C18.7332 15.925 19.1752 16.367 19.1752 16.9Z" fill="black"/>
<path d="M19.5001 6.50003H3.90002C1.30001 6.50003 0 7.80004 0 10.4V16.9001C0 19.5001 1.30001 20.8001 3.90002 20.8001H4.38752C4.83626 20.8001 5.20002 20.4364 5.20002 19.9876C5.20002 19.5388 4.82473 19.1886 4.40495 19.03C3.54406 18.7047 2.92501 17.869 2.92501 16.9001C2.92501 15.6521 3.95202 14.6251 5.20002 14.6251H18.2001C19.4481 14.6251 20.4751 15.6521 20.4751 16.9001C20.4751 17.869 19.856 18.7047 18.9952 19.03C18.5754 19.1886 18.2001 19.5388 18.2001 19.9876C18.2001 20.4364 18.5638 20.8001 19.0126 20.8001H19.5001C22.1001 20.8001 23.4001 19.5001 23.4001 16.9001V10.4C23.4001 7.80004 22.1001 6.50003 19.5001 6.50003ZM9.10004 12.6751H5.20002C4.66702 12.6751 4.22502 12.2331 4.22502 11.7001C4.22502 11.1671 4.66702 10.7251 5.20002 10.7251H9.10004C9.63304 10.7251 10.075 11.1671 10.075 11.7001C10.075 12.2331 9.63304 12.6751 9.10004 12.6751Z" fill="black"/>
</svg>
