<svg width="20" height="26" viewBox="0 0 20 26" fill="none" xmlns="http://www.w3.org/2000/svg">
<path d="M13.7562 19.9321L13.9566 23.9954L9.8466 21.1392L5.71359 23.9981L5.9141 19.9321H4.17832L3.87915 26H5.86702L9.84433 23.2489L13.8032 26H15.7912L15.492 19.9321H13.7562Z" fill="black"/>
<path d="M18.4714 7.52093L18.3526 4.9175L16.1576 3.51285L14.7527 1.31764L12.1492 1.19845L9.83511 0L7.52104 1.19872L4.91755 1.31791L3.51263 3.51285L1.31764 4.9175L1.19878 7.52093L0 9.83505L1.19878 12.1492L1.31797 14.7526L3.51263 16.1573L4.91734 18.3525L7.52082 18.4714L9.83511 19.6702L12.1492 18.4714L14.7527 18.3525L16.1574 16.1573L18.3525 14.7528L18.4714 12.1494L19.6702 9.83527L18.4714 7.52093ZM16.7569 11.6898L16.6614 13.7764L14.902 14.9022L13.7762 16.6616L11.6896 16.7569L9.83511 17.7177L7.98041 16.7569L5.89377 16.6616L4.76797 14.9022L3.00878 13.7764L2.91349 11.6898L1.95233 9.83505L2.91327 7.98068L3.00878 5.89377L4.76797 4.76797L5.89377 3.00862L7.98041 2.91327L9.83511 1.95249L11.6898 2.91321L13.7764 3.00857L14.9022 4.76792L16.6614 5.89377L16.7567 7.9804L17.7179 9.83505L16.7569 11.6898Z" fill="black"/>
</svg>
