<svg width="18" height="15" viewBox="0 0 18 15" fill="none" xmlns="http://www.w3.org/2000/svg">
<path d="M3.83943 0.292923C3.76296 0.206718 3.67014 0.136549 3.56634 0.0864826C3.46255 0.0364161 3.34985 0.0074481 3.23478 0.00125751C3.11971 -0.00493308 3.00455 0.0117769 2.89599 0.0504188C2.78742 0.0890608 2.68761 0.148866 2.60233 0.226369C2.51704 0.303872 2.44799 0.39753 2.39917 0.501916C2.35036 0.606302 2.32274 0.719339 2.31793 0.834476C2.31312 0.949613 2.33121 1.06456 2.37115 1.17265C2.41109 1.28075 2.47209 1.37984 2.55061 1.46419L3.71171 2.74503C1.21171 4.40976 0.126804 6.79873 0.0745547 6.91122C0.0253915 7.02268 0 7.14317 0 7.26499C0 7.38681 0.0253915 7.5073 0.0745547 7.61876C0.101405 7.67827 0.73711 9.08901 2.14205 10.4932C4.02013 12.3691 6.38806 13.3604 9.00054 13.3604C10.2702 13.3675 11.5285 13.1207 12.7016 12.6347L14.1595 14.2385C14.3156 14.4062 14.5316 14.5057 14.7605 14.5152C14.9895 14.5248 15.213 14.4437 15.3825 14.2896C15.5521 14.1355 15.6541 13.9207 15.6664 13.6919C15.6787 13.4631 15.6004 13.2387 15.4483 13.0672L3.83943 0.292923ZM9.00054 11.6188C6.85323 11.6188 4.97514 10.8401 3.41926 9.30527C2.80725 8.69928 2.28064 8.01276 1.85395 7.26463C2.23639 6.58901 3.21752 5.09481 4.90184 4.05055L11.4396 11.2429C10.6512 11.4946 9.82819 11.6214 9.00054 11.6188ZM17.9265 7.61876C17.9004 7.67755 17.2734 9.07014 15.8946 10.4606C15.8156 10.5482 15.7197 10.6189 15.6126 10.6683C15.5055 10.7178 15.3895 10.7449 15.2716 10.7482C15.1536 10.7514 15.0363 10.7307 14.9266 10.6872C14.817 10.6437 14.7173 10.5784 14.6337 10.4953C14.55 10.4121 14.4841 10.3128 14.44 10.2034C14.3959 10.094 14.3744 9.9768 14.377 9.85887C14.3795 9.74093 14.406 9.62475 14.4548 9.51736C14.5036 9.40997 14.5738 9.31362 14.6609 9.23415C15.2401 8.64527 15.7398 7.98315 16.1471 7.26463C15.7207 6.51633 15.1941 5.82977 14.5818 5.22399C13.0252 3.68915 11.1479 2.91049 9.00054 2.91049C8.75744 2.91049 8.51433 2.92065 8.27485 2.94097C8.15945 2.95333 8.04274 2.9425 7.93158 2.90911C7.82042 2.87572 7.71706 2.82045 7.62757 2.74654C7.53808 2.67264 7.46426 2.58159 7.41046 2.47874C7.35666 2.3759 7.32397 2.26334 7.31429 2.14768C7.30462 2.03202 7.31816 1.91559 7.35413 1.80524C7.39009 1.69489 7.44775 1.59284 7.52372 1.5051C7.59969 1.41735 7.69244 1.34567 7.7965 1.29428C7.90057 1.24289 8.01386 1.21282 8.12971 1.20584C8.41491 1.18117 8.71027 1.16883 9.00054 1.16883C11.613 1.16883 13.981 2.16085 15.8576 4.03676C17.2618 5.44097 17.8975 6.85244 17.9244 6.91122C17.9739 7.02253 17.9996 7.14294 18 7.26476C18.0004 7.38659 17.9754 7.50715 17.9265 7.61876Z" fill="#A4A4A4"/>
</svg>
