<svg width="26" height="26" viewBox="0 0 26 26" fill="none" xmlns="http://www.w3.org/2000/svg">
<path d="M11.9165 4.33345C11.9165 4.93176 12.4015 5.41678 12.9998 5.41678C13.5981 5.41678 14.0831 4.93176 14.0831 4.33345C14.0831 3.73515 13.5981 3.25012 12.9998 3.25012C12.4015 3.25012 11.9165 3.73515 11.9165 4.33345Z" stroke="#5F6368" stroke-width="2.12833"/>
<path d="M11.9165 13C11.9165 13.5983 12.4015 14.0833 12.9998 14.0833C13.5981 14.0833 14.0831 13.5983 14.0831 13C14.0831 12.4016 13.5981 11.9166 12.9998 11.9166C12.4015 11.9166 11.9165 12.4016 11.9165 13Z" stroke="#5F6368" stroke-width="2.12833"/>
<path d="M11.9165 21.6667C11.9165 22.265 12.4015 22.75 12.9998 22.75C13.5981 22.75 14.0831 22.265 14.0831 21.6667C14.0831 21.0684 13.5981 20.5834 12.9998 20.5834C12.4015 20.5834 11.9165 21.0684 11.9165 21.6667Z" stroke="#5F6368" stroke-width="2.12833"/>
</svg>
