<svg width="42" height="26" viewBox="0 0 42 26" fill="none" xmlns="http://www.w3.org/2000/svg">
<path d="M27.2509 2.77979H14.7549V23.2183H27.2509V2.77979Z" fill="#FF5F00"/>
<path d="M16.0417 13.0008C16.0402 11.0327 16.4857 9.09011 17.3446 7.31994C18.2034 5.54978 19.4531 3.99844 20.999 2.78334C19.0843 1.27643 16.7848 0.339381 14.3635 0.0792738C11.9421 -0.180833 9.49645 0.246499 7.30611 1.31243C5.11578 2.37836 3.26909 4.03989 1.97712 6.10711C0.68514 8.17434 0 10.5639 0 13.0026C0 15.4413 0.68514 17.8308 1.97712 19.898C3.26909 21.9653 5.11578 23.6268 7.30611 24.6927C9.49645 25.7586 11.9421 26.186 14.3635 25.9259C16.7848 25.6658 19.0843 24.7287 20.999 23.2218C19.4526 22.0063 18.2026 20.4544 17.3438 18.6836C16.4849 16.9127 16.0396 14.9694 16.0417 13.0008Z" fill="#EB001B"/>
<path d="M40.76 21.0555V20.6367H40.9403V20.55H40.5112V20.6367H40.6807V21.0555H40.76ZM41.5928 21.0555V20.55H41.463L41.3116 20.9111L41.1602 20.55H41.0304V21.0555H41.1241V20.6728L41.2647 21.0013H41.3621L41.5027 20.6728V21.0555H41.5928Z" fill="#F79E1B"/>
<path d="M42 13.0008C41.9999 15.4396 41.3146 17.8293 40.0224 19.8966C38.7302 21.9639 36.8832 23.6254 34.6926 24.6912C32.502 25.757 30.0562 26.184 27.6346 25.9235C25.2131 25.6631 22.9136 24.7256 20.999 23.2182C22.5444 22.002 23.7937 20.4502 24.6528 18.68C25.5119 16.9097 25.9582 14.9672 25.9582 12.9989C25.9582 11.0307 25.5119 9.08819 24.6528 7.31792C23.7937 5.54766 22.5444 3.9959 20.999 2.77971C22.9136 1.27234 25.2131 0.33483 27.6346 0.0743495C30.0562 -0.186131 32.502 0.240926 34.6926 1.30671C36.8832 2.37249 38.7302 4.03398 40.0224 6.10128C41.3146 8.16857 41.9999 10.5582 42 12.9971V13.0008Z" fill="#F79E1B"/>
</svg>
