<svg width="16" height="16" viewBox="0 0 16 16" fill="none" xmlns="http://www.w3.org/2000/svg">
<path d="M8 0C6.41775 0 4.87103 0.469192 3.55544 1.34824C2.23985 2.22729 1.21447 3.47672 0.608967 4.93853C0.00346627 6.40034 -0.15496 8.00887 0.153721 9.56072C0.462403 11.1126 1.22433 12.538 2.34315 13.6569C3.46197 14.7757 4.88743 15.5376 6.43928 15.8463C7.99113 16.155 9.59966 15.9965 11.0615 15.391C12.5233 14.7855 13.7727 13.7602 14.6518 12.4446C15.5308 11.129 16 9.58225 16 8C16 6.94942 15.7931 5.90914 15.391 4.93853C14.989 3.96793 14.3997 3.08601 13.6569 2.34315C12.914 1.60028 12.0321 1.011 11.0615 0.608964C10.0909 0.206926 9.05058 0 8 0ZM11.44 6.088L7.784 10.888C7.70948 10.9848 7.61377 11.0633 7.50421 11.1173C7.39466 11.1714 7.27418 11.1997 7.152 11.2C7.03049 11.2007 6.91042 11.1736 6.80091 11.1209C6.69141 11.0683 6.59534 10.9913 6.52 10.896L4.568 8.408C4.50339 8.325 4.45576 8.23009 4.42783 8.12869C4.3999 8.02729 4.39221 7.92138 4.40521 7.817C4.41821 7.71263 4.45165 7.61184 4.5036 7.52039C4.55555 7.42893 4.62501 7.34861 4.708 7.284C4.87562 7.15351 5.08821 7.09496 5.299 7.12121C5.40337 7.13421 5.50416 7.16764 5.59561 7.21959C5.68707 7.27155 5.76739 7.341 5.832 7.424L7.136 9.088L10.16 5.088C10.2241 5.00395 10.3041 4.93335 10.3955 4.88023C10.4868 4.8271 10.5878 4.7925 10.6925 4.77838C10.7973 4.76427 10.9038 4.77092 11.0059 4.79797C11.1081 4.82501 11.204 4.87191 11.288 4.936C11.372 5.00008 11.4426 5.0801 11.4958 5.17147C11.5489 5.26284 11.5835 5.36377 11.5976 5.46852C11.6117 5.57326 11.6051 5.67976 11.578 5.78194C11.551 5.88411 11.5041 5.97995 11.44 6.064V6.088Z" fill="#74B054"/>
</svg>
