<svg width="44" height="30" viewBox="0 0 44 30" fill="none" xmlns="http://www.w3.org/2000/svg">
<path fill-rule="evenodd" clip-rule="evenodd" d="M28.0815 6.34815C26.545 3.66073 24.159 1.566 22.5969 0.755722C22.4936 0.703496 22.4177 0.616304 22.3857 0.513327C22.3538 0.410351 22.3685 0.300025 22.4266 0.206621C22.4847 0.113216 22.5815 0.044384 22.6956 0.0152667C22.8097 -0.0138507 22.9318 -0.000868192 23.0351 0.0513582C25.0812 1.10074 27.4759 3.53899 28.8626 5.96027C28.8958 6.00655 28.9174 6.05888 28.9258 6.11356C28.9342 6.16824 28.9291 6.22395 28.9111 6.27676C28.893 6.32956 28.8624 6.37818 28.8213 6.41919C28.7802 6.4602 28.7297 6.49259 28.6733 6.51409C28.6133 6.54432 28.5461 6.56077 28.4774 6.56198C28.3959 6.56313 28.3156 6.54372 28.2457 6.50596C28.1758 6.46819 28.1189 6.41354 28.0815 6.34815ZM14.6632 19.4807C14.7417 23.2333 18.7097 27.6561 21.4213 29.0668C21.4736 29.0907 21.5197 29.1241 21.5567 29.1651C21.5936 29.2061 21.6206 29.2537 21.6359 29.3048C21.6511 29.3559 21.6543 29.4093 21.6452 29.4616C21.6361 29.514 21.615 29.564 21.5831 29.6085C21.5444 29.6685 21.4894 29.7185 21.4232 29.7537C21.357 29.789 21.282 29.8083 21.2052 29.8098C21.1269 29.8111 21.0499 29.7925 20.9829 29.7561C18.0904 28.2647 14.1015 23.8459 13.7981 19.847L0.560931 20.0208C0.451225 20.0126 0.34894 19.9678 0.273995 19.8951C0.19905 19.8225 0.156811 19.7271 0.155506 19.6277C0.154201 19.5283 0.193923 19.4319 0.266935 19.3573C0.339947 19.2827 0.441021 19.2352 0.550474 19.2241L13.8713 19.0493C14.6709 16.3977 14.6342 13.5991 13.7653 10.9694L0.444413 11.1443C0.32798 11.1458 0.215768 11.1055 0.132462 11.0322C0.0491552 10.959 0.0015788 10.8588 0.000198642 10.7536C-0.00118151 10.6485 0.0437476 10.547 0.125102 10.4716C0.206457 10.3962 0.317573 10.3529 0.434005 10.3514L13.6712 10.1776C13.8694 6.15708 17.7578 1.65003 20.5934 0.0834096C20.6952 0.0284905 20.817 0.0123068 20.9318 0.0384187C21.0467 0.0645307 21.1452 0.130799 21.2057 0.222646C21.2663 0.314493 21.2839 0.424395 21.2547 0.528175C21.2254 0.631954 21.1518 0.72111 21.0499 0.776029C18.3761 2.23856 14.5255 6.76778 14.5456 10.5249C15.5416 13.435 15.5824 16.5455 14.6632 19.4807ZM43.5944 18.6591L30.2485 18.8343C29.3796 16.2047 29.3428 13.406 30.1424 10.7545L43.4884 10.5793C43.6048 10.5777 43.7159 10.5345 43.7973 10.4591C43.8786 10.3837 43.9236 10.2822 43.9222 10.1771C43.9208 10.0719 43.8732 9.9717 43.7899 9.89843C43.7066 9.82517 43.5944 9.78486 43.478 9.78639L29.7934 9.96602C29.6982 9.96825 29.6064 9.99835 29.5316 10.0518C29.4569 10.1052 29.4034 10.1791 29.3791 10.2622C28.4457 13.2189 28.4868 16.3549 29.4975 19.286C29.5175 23.0394 25.667 27.5648 22.9934 29.0462C22.9403 29.07 22.8934 29.1037 22.8558 29.1451C22.8182 29.1864 22.7908 29.2345 22.7752 29.2861C22.7597 29.3377 22.7565 29.3917 22.7658 29.4444C22.775 29.4972 22.7966 29.5475 22.8291 29.5922C22.8693 29.6511 22.9257 29.6996 22.9927 29.7331C23.0598 29.7666 23.1354 29.784 23.2121 29.7835C23.2904 29.7827 23.3669 29.7621 23.433 29.7239C26.2688 28.1762 30.1568 23.6352 30.3551 19.6297L43.6049 19.4558C43.7143 19.4447 43.8154 19.3972 43.8884 19.3226C43.9614 19.248 44.0012 19.1516 43.9999 19.0522C43.9985 18.9528 43.9563 18.8575 43.8814 18.7848C43.8064 18.7121 43.7041 18.6673 43.5944 18.6591ZM21.4059 2.23537C21.5342 2.15568 21.6856 2.11205 21.8411 2.11001C22.0495 2.10728 22.2504 2.17944 22.3996 2.31062C22.5488 2.4418 22.6339 2.62126 22.6364 2.80951C22.6383 2.9499 22.594 3.08774 22.5091 3.20561C22.4243 3.32347 22.3027 3.41606 22.1598 3.47167C22.0169 3.52728 21.859 3.54341 21.7062 3.51802C21.5533 3.49264 21.4124 3.42687 21.3011 3.32904C21.1899 3.23122 21.1134 3.10572 21.0813 2.96843C21.0491 2.83114 21.0628 2.68821 21.1206 2.55773C21.1784 2.42724 21.2777 2.31506 21.4059 2.23537Z" fill="#666666"/>
</svg>
