<svg width="430" height="89" viewBox="0 0 430 89" fill="none" xmlns="http://www.w3.org/2000/svg">
<path fill-rule="evenodd" clip-rule="evenodd" d="M382.72 89L279.888 89L279.741 88.4543C277.539 84.5909 272.39 81.88 266.39 81.88L163.61 81.88C157.61 81.88 152.461 84.5909 150.259 88.4543L150.112 89L47.28 89C21.1693 89 3.23909e-05 73.2713 3.47018e-05 53.8685L3.69334e-05 35.1314C3.92441e-05 15.7299 21.1693 4.28271e-06 47.28 5.95825e-06L382.72 2.74836e-05C408.831 2.91591e-05 430 15.73 430 35.1315L430 53.8686C430 73.2713 408.831 89 382.72 89Z" fill="black"/>
</svg>
