<svg width="26" height="26" viewBox="0 0 26 26" fill="none" xmlns="http://www.w3.org/2000/svg">
<path d="M19.9313 18.1981H9.11855L6.89795 20.0938L4.67735 18.1981H0V19.498C0 21.1548 1.14442 22.5045 2.55965 22.531C2.69126 23.3499 3.00973 24.0898 3.48905 24.6687C4.19802 25.525 5.22871 25.9973 6.391 25.9973H13.5403C14.7026 25.9973 15.7332 25.525 16.4422 24.6677C16.9215 24.0887 17.24 23.3488 17.3716 22.5299C18.1234 22.5164 18.7987 22.1291 19.2672 21.5209C19.7048 20.9378 19.9382 20.2269 19.9313 19.498V18.1981Z" fill="black"/>
<path d="M4.82033 16.465L6.89632 17.9918L8.99073 16.465H19.9313V16.0317C19.9306 15.5324 19.7579 15.0487 19.4422 14.6619C19.1265 14.2752 18.6871 14.0091 18.1981 13.9086C18.1537 12.3005 17.494 10.9546 16.2748 10.009C15.1472 9.12939 13.6405 8.66577 11.9154 8.66577H8.01583C4.32097 8.66577 1.81819 10.7656 1.73315 13.9086C1.24414 14.0091 0.804745 14.2752 0.489036 14.6619C0.173327 15.0487 0.000609945 15.5324 0 16.0317V16.465H4.82033Z" fill="black"/>
<path d="M24.2143 4.33288H20.1744L20.6576 2.4015L23.0726 1.57067L22.531 0L19.173 1.08322L18.3882 4.33288H10.3989V6.06604H11.4144L11.5152 6.93261H11.9154C14.0277 6.93261 15.9049 7.52297 17.338 8.63977C18.1351 9.25395 18.7813 10.0422 19.2272 10.9443C19.5019 11.504 19.6975 12.0991 19.8083 12.7127C20.6154 13.2096 21.2139 13.9834 21.4919 14.8895C21.7699 15.7956 21.7084 16.7719 21.3189 17.6359C21.5471 18.2302 21.6642 18.8614 21.6644 19.498C21.6644 20.7079 21.2528 21.861 20.5054 22.7449C20.0428 23.296 19.4504 23.7231 18.7814 23.9879C18.5535 24.6376 18.2138 25.2424 17.7778 25.7752C17.7139 25.8521 17.6484 25.9274 17.5812 26H21.6644C22.531 26 22.9101 25.5667 23.0184 24.7543L24.9899 6.06874H25.9973V4.33288H24.2143Z" fill="black"/>
</svg>
