<svg width="16" height="17" viewBox="0 0 16 17" fill="none" xmlns="http://www.w3.org/2000/svg">
<path opacity="0.4" d="M7.80469 16.9999C3.50572 16.9999 0 13.5027 0 9.19518V7.5916C0 7.25894 0.272951 6.99452 0.59708 6.99452C0.92121 6.99452 1.19416 7.26747 1.19416 7.5916V9.19518C1.19416 12.8374 4.15398 15.7972 7.79616 15.7972C11.4383 15.7972 14.3982 12.8374 14.3982 9.19518V7.5916C14.3982 7.25894 14.6711 6.99452 14.9952 6.99452C15.3194 6.99452 15.5923 7.26747 15.5923 7.5916V9.19518C15.6094 13.5027 12.1037 16.9999 7.80469 16.9999Z" fill="#292D32"/>
<path d="M7.80554 0C4.93955 0 2.6024 2.33714 2.6024 5.20313V9.20357C2.6024 12.0696 4.93955 14.4067 7.80554 14.4067C10.6715 14.4067 13.0087 12.0696 13.0087 9.20357V5.20313C13.0087 2.33714 10.6715 0 7.80554 0ZM9.66502 7.32703C9.60532 7.55733 9.39207 7.71087 9.16177 7.71087C9.11912 7.71087 9.06794 7.70234 9.02529 7.69381C8.15526 7.45498 7.23405 7.45498 6.36402 7.69381C6.08253 7.77058 5.80105 7.60851 5.72428 7.32703C5.64752 7.05408 5.80958 6.76407 6.09106 6.6873C7.14023 6.39729 8.24909 6.39729 9.29825 6.6873C9.57973 6.76407 9.74179 7.04555 9.66502 7.32703ZM10.3901 4.9643C10.3133 5.17754 10.1171 5.30549 9.90386 5.30549C9.84415 5.30549 9.78444 5.29696 9.72473 5.27137C8.41968 4.7937 6.98669 4.7937 5.68163 5.27137C5.40868 5.37372 5.11014 5.23725 5.00779 4.9643C4.91396 4.69988 5.05044 4.40134 5.32339 4.29898C6.85874 3.74455 8.54763 3.74455 10.0745 4.29898C10.3474 4.40134 10.4839 4.69988 10.3901 4.9643Z" fill="#292D32"/>
</svg>
