<svg width="23" height="17" viewBox="0 0 23 17" fill="none" xmlns="http://www.w3.org/2000/svg">
<path d="M21.5625 7.16968H4.51375L9.73188 1.9608C9.97587 1.71682 10.0933 1.40228 10.0582 1.08637C10.0232 0.770463 9.83856 0.479063 9.545 0.276277C9.25144 0.0734903 8.87297 -0.024071 8.49286 0.00505537C8.11275 0.0341818 7.76212 0.18761 7.51812 0.431588L0.330625 7.59978C0.282268 7.65679 0.239026 7.71669 0.20125 7.77898C0.20125 7.83872 0.20125 7.87456 0.100625 7.93429C0.0354684 8.07127 0.00135286 8.21709 0 8.36438C0.00135286 8.51168 0.0354684 8.65749 0.100625 8.79447C0.100625 8.85421 0.100625 8.89005 0.20125 8.94979C0.239026 9.01208 0.282268 9.07197 0.330625 9.12899L7.51812 16.2972C7.65328 16.432 7.82253 16.5405 8.01384 16.6148C8.20515 16.6892 8.41382 16.7276 8.625 16.7273C8.96087 16.7278 9.28638 16.6306 9.545 16.4525C9.69056 16.3522 9.81088 16.229 9.89907 16.09C9.98727 15.951 10.0416 15.7989 10.059 15.6425C10.0763 15.486 10.0564 15.3282 10.0002 15.1781C9.94411 15.0281 9.85292 14.8887 9.73188 14.768L4.51375 9.55908H21.5625C21.9437 9.55908 22.3094 9.43321 22.579 9.20916C22.8486 8.98511 23 8.68124 23 8.36438C23 8.04753 22.8486 7.74365 22.579 7.5196C22.3094 7.29555 21.9437 7.16968 21.5625 7.16968Z" fill="#6B6B6B"/>
</svg>
