<svg width="80" height="82" viewBox="0 0 80 82" fill="none" xmlns="http://www.w3.org/2000/svg">
<path d="M25.7355 26.2776L50.1011 1.51903C51.9187 -0.327876 53.9819 -0.677292 56.1925 1.51903L78.8388 24.5305C80.4599 26.1778 80.3125 28.6736 78.8388 30.1711L29.5672 80.1875C27.7988 81.9845 25.4899 82.2839 23.4267 80.1875L1.27169 57.6751C-0.496782 55.8781 -0.34941 53.0329 1.27169 51.3856L25.7355 26.2776Z" fill="white"/>
<path d="M26.1284 28.8237L51.6238 54.7304L28.4372 78.291C27.0126 79.7386 25.5389 79.7885 24.0652 78.291L2.84353 56.7271C1.51718 55.3793 1.61542 53.8818 2.84353 52.6339L26.1284 28.8237Z" fill="#006491"/>
<path d="M53.245 53.1826L27.7495 27.2759L50.9361 3.71532C52.3607 2.26774 53.8345 2.21783 55.3082 3.71532L76.5298 25.2793C77.8562 26.627 77.7579 28.1245 76.5298 29.3724L53.245 53.1826Z" fill="#E31837"/>
<path d="M53.0984 33.7159C56.5711 33.7159 59.3863 30.8553 59.3863 27.3266C59.3863 23.7978 56.5711 20.9373 53.0984 20.9373C49.6257 20.9373 46.8105 23.7978 46.8105 27.3266C46.8105 30.8553 49.6257 33.7159 53.0984 33.7159Z" fill="white"/>
<path d="M35.4627 61.1194C38.9354 61.1194 41.7506 58.2589 41.7506 54.7301C41.7506 51.2014 38.9354 48.3408 35.4627 48.3408C31.99 48.3408 29.1748 51.2014 29.1748 54.7301C29.1748 58.2589 31.99 61.1194 35.4627 61.1194Z" fill="white"/>
<path d="M17.0892 61.1194C20.5619 61.1194 23.3771 58.2589 23.3771 54.7301C23.3771 51.2014 20.5619 48.3408 17.0892 48.3408C13.6165 48.3408 10.8013 51.2014 10.8013 54.7301C10.8013 58.2589 13.6165 61.1194 17.0892 61.1194Z" fill="white"/>
</svg>
