<svg width="51" height="29" viewBox="0 0 51 29" fill="none" xmlns="http://www.w3.org/2000/svg">
<path d="M25.5308 5.03947H30.2343V2.18377C30.2343 1.80508 30.1104 1.4419 29.8899 1.17413C29.6693 0.906354 29.3702 0.75592 29.0584 0.75592H26.7066C26.3948 0.75592 26.0957 0.906354 25.8752 1.17413C25.6546 1.4419 25.5308 1.80508 25.5308 2.18377V5.03947Z" stroke="white" stroke-width="1.5" stroke-linecap="round" stroke-linejoin="round"/>
<path d="M30.2352 2.89819C30.2352 5.21987 30.8314 7.48444 31.9403 9.37634L31.9991 9.47629C33.1465 11.4334 33.763 13.7762 33.7629 16.1786V25.0298C33.7629 25.7872 33.5151 26.5136 33.0741 27.0491C32.633 27.5847 32.0348 27.8855 31.4111 27.8855H24.3559C23.7321 27.8855 23.134 27.5847 22.6929 27.0491C22.2519 26.5136 22.0041 25.7872 22.0041 25.0298V16.1772C22.0041 13.7755 22.6203 11.4339 23.7679 9.47629L23.8267 9.37634C24.9358 7.48465 25.5317 5.22028 25.5317 2.89819" stroke="white" stroke-width="1.5" stroke-linecap="round" stroke-linejoin="round"/>
<path d="M47.4651 18.0584L43.1456 28.1374L40.3558 21.613" stroke="white" stroke-width="1.3" stroke-linecap="round" stroke-linejoin="round"/>
<path d="M45.0992 16.5952C44.7537 17.3272 44.0086 17.8784 43.1456 17.8784C42.5561 17.8784 41.9307 17.6535 41.6324 17.4393C41.3579 17.2427 40.9858 17.3385 40.9858 17.7884V20.5782C40.985 20.8643 40.8709 21.1385 40.6686 21.3408C40.4662 21.5432 40.192 21.6572 39.9059 21.658C39.6197 21.6572 39.3456 21.5432 39.1432 21.3408C38.9409 21.1385 38.8268 20.8643 38.826 20.5782V18.0584H38.736C37.1454 18.0584 35.9463 16.7693 35.9463 15.1787C35.9463 14.415 36.2497 13.6825 36.7898 13.1425C37.3298 12.6024 38.0623 12.299 38.826 12.299H39.186V11.9391C39.186 10.8889 39.6031 9.88178 40.3457 9.13922C41.0883 8.39665 42.0954 7.97948 43.1456 7.97948C44.1957 7.97948 45.2028 8.39665 45.9454 9.13922C46.688 9.88178 47.1051 10.8889 47.1051 11.9391V12.299H47.4651C48.2288 12.299 48.9613 12.6024 49.5013 13.1425C50.0414 13.6825 50.3448 14.415 50.3448 15.1787C50.3448 15.9425 50.0414 16.6749 49.5013 17.215C48.9613 17.755 48.2288 18.0584 47.4651 18.0584C46.4851 18.0584 45.5753 17.4735 45.0988 16.5956L45.0992 16.5952Z" stroke="white" stroke-width="1.3" stroke-linecap="round" stroke-linejoin="round"/>
<path d="M20.2928 16.9167C20.2188 16.8302 20.1271 16.7608 20.0238 16.7133C19.9205 16.6657 19.8081 16.6411 19.6943 16.6411H14.9698V13.4914C14.9698 12.8649 14.721 12.264 14.2779 11.821C13.8349 11.378 13.2341 11.1292 12.6076 11.1292H7.88308C7.25658 11.1292 6.65573 11.378 6.21272 11.821C5.76971 12.264 5.52083 12.8649 5.52083 13.4914V16.6411H0.796333C0.682194 16.6398 0.569138 16.6633 0.464999 16.7101C0.360861 16.7568 0.268128 16.8256 0.193228 16.9117C0.118327 16.9979 0.0630494 17.0993 0.0312241 17.2089C-0.000601106 17.3185 -0.00821275 17.4337 0.00891655 17.5466L1.48926 27.1137C1.54621 27.4892 1.73696 27.8315 2.02635 28.0775C2.31575 28.3235 2.6843 28.4566 3.06409 28.4523H17.4423C17.8221 28.4566 18.1907 28.3235 18.4801 28.0775C18.7695 27.8315 18.9602 27.4892 19.0172 27.1137L20.4818 17.5466C20.4975 17.4342 20.4888 17.3197 20.4562 17.211C20.4236 17.1022 20.3678 17.0018 20.2928 16.9167ZM7.09567 13.4914C7.09567 13.2826 7.17863 13.0823 7.3263 12.9346C7.47397 12.7869 7.67425 12.704 7.88308 12.704H12.6076C12.8164 12.704 13.0167 12.7869 13.1644 12.9346C13.312 13.0823 13.395 13.2826 13.395 13.4914V16.6411H7.09567V13.4914ZM17.4423 26.8775H3.04835L1.71761 18.2159H18.7731L17.4423 26.8775Z" fill="white"/>
</svg>
