<svg width="27" height="27" viewBox="0 0 27 27" fill="none" xmlns="http://www.w3.org/2000/svg">
<path d="M1 1L26 26" stroke="black" stroke-width="2" stroke-linecap="round" stroke-linejoin="round"/>
<path d="M6.89096 6.90325C3.08099 9.49409 1 13.5 1 13.5C1 13.5 5.54545 22.25 13.5 22.25C16.0629 22.25 18.2717 21.3418 20.0889 20.1105M12.25 4.82277C12.6567 4.77516 13.0735 4.75 13.5 4.75C21.4545 4.75 26 13.5 26 13.5C26 13.5 25.1353 15.1646 23.5 17.0419" stroke="black" stroke-width="2" stroke-linecap="round" stroke-linejoin="round"/>
<path d="M16 16.2953C15.3365 16.889 14.4605 17.2501 13.5 17.2501C11.4289 17.2501 9.75 15.5713 9.75 13.5001C9.75 12.4705 10.1649 11.5379 10.8366 10.8602" stroke="black" stroke-width="2" stroke-linecap="round" stroke-linejoin="round"/>
</svg>
