<svg width="26" height="26" viewBox="0 0 26 26" fill="none" xmlns="http://www.w3.org/2000/svg">
<path d="M5.14013 1.21019L1.21019 5.92612V22.4319C1.21019 23.0573 1.48622 23.657 1.97756 24.0992C2.4689 24.5414 3.13529 24.7899 3.83015 24.7899H22.1699C22.8648 24.7899 23.5312 24.5414 24.0225 24.0992C24.5138 23.657 24.7899 23.0573 24.7899 22.4319V5.92612L20.8599 1.21019H5.14013Z" stroke="black" stroke-width="2.33" stroke-linecap="round" stroke-linejoin="round"/>
<path d="M1.21019 5.92642H24.7899" stroke="black" stroke-width="2.33" stroke-linecap="round" stroke-linejoin="round"/>
<path d="M17.6132 12.4873C17.6132 13.8468 17.1271 15.1507 16.2619 16.112C15.3968 17.0733 14.2233 17.6134 12.9998 17.6134C11.7762 17.6134 10.6028 17.0733 9.73759 16.112C8.87241 15.1507 8.38635 13.8468 8.38635 12.4873" stroke="black" stroke-width="3" stroke-linecap="round" stroke-linejoin="round"/>
</svg>
