<svg width="23" height="18" viewBox="0 0 23 18" fill="none" xmlns="http://www.w3.org/2000/svg">
<path d="M22.3653 4.18134L12.3408 0.164179C11.7946 -0.0547262 11.2052 -0.0547262 10.6593 0.164179L0.634479 4.18134C-0.211493 4.52024 -0.211493 5.97945 0.634479 6.31836L2.38213 7.01867C1.99867 7.63694 1.76292 8.39116 1.73956 9.21709C1.39348 9.47584 1.14982 9.94271 1.14982 10.5C1.14982 11.0054 1.35395 11.4305 1.64792 11.7024L0.730433 17.0873C0.650651 17.5556 0.923777 18 1.29142 18H3.30788C3.67588 18 3.94901 17.5556 3.86923 17.0873L2.95174 11.7024C3.24571 11.4305 3.44983 11.0054 3.44983 10.5C3.44983 9.95771 3.21732 9.50396 2.88705 9.24053C2.91436 8.53647 3.19036 7.91397 3.6306 7.51929L10.6589 10.336C10.9845 10.4663 11.6091 10.629 12.3404 10.336L22.3653 6.31883C23.2116 5.97945 23.2116 4.52071 22.3653 4.18134ZM12.6783 11.7699C11.653 12.1805 10.7793 11.9536 10.3211 11.7699L5.10943 9.68162L4.59984 15C4.59984 16.657 7.68904 18 11.4999 18C15.3107 18 18.3999 16.657 18.3999 15L17.8903 9.68115L12.6783 11.7699Z" fill="#003A80"/>
</svg>
